HIERARCHY
ROOT Hips
{
	OFFSET 0.000000 0.000000 0.000000
	CHANNELS 6 Xposition Yposition Zposition Xrotation Yrotation Zrotation
	JOINT LeftUpLeg_virtual
	{
		OFFSET 0.000000 0.000000 0.000000
		CHANNELS 3 Xrotation Yrotation Zrotation
		JOINT LeftUpLeg
		{
			OFFSET 15.427100 -6.655098 0.678600
			CHANNELS 3 Xrotation Yrotation Zrotation
			JOINT LeftLeg
			{
				OFFSET 4.081073 -39.591068 13.024000
				CHANNELS 3 Xrotation Yrotation Zrotation
				JOINT LeftFoot
				{
					OFFSET -4.081074 -37.707932 -15.979700
					CHANNELS 3 Xrotation Yrotation Zrotation
					JOINT LeftToeBase
					{
						OFFSET 5.346399 -15.068900 20.645000
						CHANNELS 3 Xrotation Yrotation Zrotation
						JOINT LeftToe_End
						{
							OFFSET 2.754700 0.931300 11.300900
							CHANNELS 3 Xrotation Yrotation Zrotation
							End Site
							{
								OFFSET 0 0 0
							}
						}
					}
				}
			}
		}
	}
	JOINT RightUpLeg_virtual
	{
		OFFSET 0.000000 0.000000 0.000000
		CHANNELS 3 Xrotation Yrotation Zrotation
		JOINT RightUpLeg
		{
			OFFSET -15.569500 -6.655098 0.678600
			CHANNELS 3 Xrotation Yrotation Zrotation
			JOINT RightLeg
			{
				OFFSET -4.081825 -39.591045 13.023800
				CHANNELS 3 Xrotation Yrotation Zrotation
				JOINT RightFoot
				{
					OFFSET 4.081824 -37.707954 -15.979600
					CHANNELS 3 Xrotation Yrotation Zrotation
					JOINT RightToeBase
					{
						OFFSET -5.346400 -15.068900 20.645000
						CHANNELS 3 Xrotation Yrotation Zrotation
						JOINT RightToe_End
						{
							OFFSET -2.754700 0.931300 11.300900
							CHANNELS 3 Xrotation Yrotation Zrotation
							End Site
							{
								OFFSET 0 0 0
							}
						}
					}
				}
			}
		}
	}
	JOINT Spine_virtual
	{
		OFFSET 0.000000 0.000000 0.000000
		CHANNELS 3 Xrotation Yrotation Zrotation
		JOINT Spine
		{
			OFFSET -0.279200 12.230698 -2.892100
			CHANNELS 3 Xrotation Yrotation Zrotation
			JOINT Spine1
			{
				OFFSET -0.232667 10.192268 -1.242267
				CHANNELS 3 Xrotation Yrotation Zrotation
				JOINT Spine1_split
				{
					OFFSET -0.232667 10.192268 -1.242267
					CHANNELS 3 Xrotation Yrotation Zrotation
					JOINT Spine2
					{
						OFFSET -0.232667 10.192268 -1.242267
						CHANNELS 3 Xrotation Yrotation Zrotation
						JOINT Neck_virtual
						{
							OFFSET 0.000000 0.000000 0.000000
							CHANNELS 3 Xrotation Yrotation Zrotation
							JOINT Neck
							{
								OFFSET -0.418800 17.814194 8.416900
								CHANNELS 3 Xrotation Yrotation Zrotation
								JOINT Head
								{
									OFFSET 0.000000 7.031097 3.806800
									CHANNELS 3 Xrotation Yrotation Zrotation
									JOINT HeadTop_End
									{
										OFFSET 0.000000 24.646606 12.978600
										CHANNELS 3 Xrotation Yrotation Zrotation
										End Site
										{
											OFFSET 0 0 0
										}
									}
								}
							}
						}
						JOINT LeftShoulder_virtual
						{
							OFFSET 0.000000 0.000000 0.000000
							CHANNELS 3 Xrotation Yrotation Zrotation
							JOINT LeftShoulder
							{
								OFFSET 8.476499 7.247704 -3.868750
								CHANNELS 3 Xrotation Yrotation Zrotation
								JOINT LeftShoulder_split
								{
									OFFSET 8.476499 7.247704 -3.868750
									CHANNELS 3 Xrotation Yrotation Zrotation
									JOINT LeftArm
									{
										OFFSET 9.308998 -2.777710 0.208600
										CHANNELS 3 Xrotation Yrotation Zrotation
										JOINT LeftForeArm
										{
											OFFSET 29.972298 0.000000 0.000000
											CHANNELS 3 Xrotation Yrotation Zrotation
											JOINT LeftHand
											{
												OFFSET 26.026505 0.000000 0.000000
												CHANNELS 3 Xrotation Yrotation Zrotation
												End Site
												{
													OFFSET 0 0 0
												}
											}
										}
									}
								}
							}
						}
						JOINT RightShoulder_virtual
						{
							OFFSET 0.000000 0.000000 0.000000
							CHANNELS 3 Xrotation Yrotation Zrotation
							JOINT RightShoulder
							{
								OFFSET -7.570500 7.247704 -3.868750
								CHANNELS 3 Xrotation Yrotation Zrotation
								JOINT RightShoulder_split
								{
									OFFSET -7.570500 7.247704 -3.868750
									CHANNELS 3 Xrotation Yrotation Zrotation
									JOINT RightArm
									{
										OFFSET -9.308998 -2.777710 0.208500
										CHANNELS 3 Xrotation Yrotation Zrotation
										JOINT RightForeArm
										{
											OFFSET -29.972300 0.000000 0.000000
											CHANNELS 3 Xrotation Yrotation Zrotation
											JOINT RightHand
											{
												OFFSET -26.026505 0.000000 0.000000
												CHANNELS 3 Xrotation Yrotation Zrotation
												End Site
												{
													OFFSET 0 0 0
												}
											}
										}
									}
								}
							}
						}
					}
				}
			}
		}
	}
}
MOTION
Frames: 7
Frame Time: 0.03333333
2.069075 85.087585 1.360664 0.000000 0.000000 0.000000 6.021570 -7.749340 -0.821890 -74.985164 2.922841 12.689244 108.542641 10.501167 -4.265505 39.606361 -12.279154 15.389463 8.471912 -8.856774 0.893434 0.000000 0.000000 0.000000 1.781576 -10.568888 -0.287249 9.489470 -1.444406 8.068236 16.751097 5.594076 -2.775790 -1.823119 -0.430678 -12.175914 -27.947066 5.334560 11.534046 0.000000 0.000000 0.000000 3.017461 -1.716866 2.446348 -0.217945 2.423692 0.193694 11.268712 2.991051 -0.858279 0.499911 15.608852 -2.889266 0.000000 0.000000 0.000000 10.242697 2.389969 -1.550596 7.861094 -1.722406 -9.523084 -14.037696 6.599534 -10.680513 0.000000 0.000000 0.000000 10.273632 3.090451 -0.643213 -0.203305 -12.849421 -8.540602 -3.105767 -3.099349 -6.919350 24.692539 5.682896 -45.769627 86.958676 -82.808599 71.889858 0.000000 0.000000 0.000000 12.661926 3.807183 -0.725288 0.880555 1.476842 7.111448 6.301974 4.161050 4.104588 -6.927768 -5.900866 58.739996 -89.149152 76.457711 81.943077 0.000000 0.000000 0.000000 
1.043356 83.560112 15.847855 0.000000 0.000000 0.000000 2.699458 -11.998166 0.627563 -78.937739 4.292634 15.211647 96.265622 11.717035 -3.973766 38.147382 -11.904204 15.222426 10.578784 -8.377407 1.389671 0.000000 0.000000 0.000000 0.873686 -16.987449 1.306839 10.081782 -2.538377 5.137978 21.026662 5.889257 -1.392242 3.120726 -1.127066 -11.961737 -28.004901 5.055796 12.621578 0.000000 0.000000 0.000000 1.971968 -2.632313 2.818533 0.726459 3.260540 -0.980742 11.345604 2.862143 -1.240856 1.993468 15.803680 -2.642818 0.000000 0.000000 0.000000 9.706360 2.435955 -1.737869 7.589842 -2.032482 -9.745266 -13.369904 7.254679 -10.348796 0.000000 0.000000 0.000000 10.143123 3.288033 -0.834349 0.184206 -11.490364 -7.192983 -4.370481 -2.903410 -6.860165 31.006176 11.648813 -45.847600 50.421010 -80.025843 35.284361 0.000000 0.000000 0.000000 12.212938 3.849386 -1.169907 0.601157 1.449893 5.569331 5.091266 0.317331 0.476859 -9.802666 -8.500555 55.330560 -119.376462 75.629995 112.143756 0.000000 0.000000 0.000000 
1.176904 80.028320 36.197094 0.000000 0.000000 0.000000 -0.493406 -18.160879 4.268195 -79.978230 2.258265 15.124846 79.105864 12.842461 -1.790881 36.264507 -10.353122 11.580115 11.356865 -7.591973 1.874483 0.000000 0.000000 0.000000 -1.394918 -23.815179 4.757489 11.543651 -2.143479 0.947977 29.880076 7.431186 0.470326 10.180631 -0.833866 -9.652053 -28.290650 4.693140 14.033458 0.000000 0.000000 0.000000 -0.526808 -6.080315 5.417242 2.620293 4.416490 -3.087084 11.601015 2.848201 -2.529959 1.799800 12.917039 -0.882858 0.000000 0.000000 0.000000 9.569384 2.644077 -2.917867 8.133767 -2.428741 -9.630201 -11.904871 6.446678 -9.575132 0.000000 0.000000 0.000000 10.559636 3.592808 -2.188524 0.503234 -9.103068 -4.961664 -5.486833 -3.460579 -5.233639 36.663069 18.807413 -48.299071 32.050420 -71.499896 15.962934 0.000000 0.000000 0.000000 12.089674 4.069317 -2.781147 0.593981 1.853946 2.742683 4.097053 -2.652406 -0.388839 -9.617311 -13.251075 49.079185 -142.227024 70.229180 135.808927 0.000000 0.000000 0.000000 
2.468898 74.094337 59.458046 0.000000 0.000000 0.000000 -3.023713 -24.626189 9.360703 -78.310127 -2.168775 11.990181 61.786622 13.192413 2.134350 35.447790 -7.247301 5.922562 9.980090 -6.641253 2.499077 0.000000 0.000000 0.000000 -2.774085 -30.496658 9.799603 13.609566 -0.688771 -2.904631 39.941563 10.070286 1.892672 14.681533 0.863955 -7.919649 -26.225174 4.859653 15.020003 0.000000 0.000000 0.000000 -4.353357 -11.663981 9.817657 4.977081 5.472852 -5.636636 11.983523 2.796385 -4.293032 1.055373 7.855153 0.915061 0.000000 0.000000 0.000000 9.798006 2.858723 -4.681455 9.443184 -2.630999 -9.831295 -10.074692 4.820480 -8.850868 0.000000 0.000000 0.000000 11.247767 3.774453 -4.181934 0.663592 -6.038000 -2.708605 -5.648723 -4.918095 -4.187087 40.659843 25.156440 -52.353694 27.546822 -61.366026 9.731925 0.000000 0.000000 0.000000 12.310847 4.170903 -5.098081 0.815583 2.659534 0.051279 4.102053 -3.869170 1.223779 -5.117691 -18.614268 42.717687 -152.529257 63.980199 147.813025 0.000000 0.000000 0.000000 
4.484188 66.369659 83.919838 0.000000 0.000000 0.000000 -4.397847 -30.473849 15.026727 -75.550020 -6.753487 6.809343 47.690956 12.534625 6.775687 35.944099 -3.275261 0.920558 6.366333 -5.627498 3.225426 0.000000 0.000000 0.000000 -3.050294 -36.638258 15.342746 15.029480 0.358379 -4.517057 50.448795 12.636775 2.652401 15.290538 2.909620 -8.001703 -19.336199 5.986869 14.852871 0.000000 0.000000 0.000000 -7.249494 -18.466395 15.496863 7.241009 6.116328 -7.961034 12.546273 2.550526 -6.089127 0.114556 3.875315 1.765148 0.000000 0.000000 0.000000 10.061837 2.816742 -6.483776 11.240443 -2.331549 -10.972871 -8.303884 3.360198 -8.717866 0.000000 0.000000 0.000000 11.932397 3.660739 -6.225124 0.675402 -3.156287 -1.625273 -4.163203 -6.482702 -3.392511 42.507621 29.090667 -57.327533 28.092939 -51.922145 7.600185 0.000000 0.000000 0.000000 12.858691 3.970144 -7.373503 1.200777 4.008006 -1.310355 4.772069 -3.560029 3.405136 3.116532 -22.719356 39.001285 -156.672956 60.565063 154.480424 0.000000 0.000000 0.000000 
6.704301 57.524662 107.960342 0.000000 0.000000 0.000000 -4.286115 -36.738935 20.930109 -72.521303 -9.883548 0.917007 37.915265 10.637444 11.262830 37.640162 0.421730 -1.501238 0.199879 -4.654580 3.799370 0.000000 0.000000 0.000000 -3.437279 -42.174034 21.203284 14.112028 0.025399 -3.387665 61.755784 14.986646 2.854915 13.613890 5.142718 -7.750173 -8.937664 7.395022 13.074672 0.000000 0.000000 0.000000 -8.517788 -26.104037 21.985445 9.051403 6.001818 -9.802514 13.326520 1.883562 -7.495968 -0.676434 1.125428 2.205918 0.000000 0.000000 0.000000 10.197636 2.316641 -7.801928 12.927076 -1.305234 -13.334092 -6.681882 3.166141 -9.579025 0.000000 0.000000 0.000000 12.550771 3.023875 -7.775484 0.616528 -0.893821 -2.464623 -2.251231 -8.216663 -4.059330 41.872512 29.298892 -61.232113 30.435207 -43.645383 6.416450 0.000000 0.000000 0.000000 13.689032 3.328677 -9.014524 1.714159 5.876943 -0.883897 4.878437 -3.172668 5.429230 13.191168 -23.906999 39.462302 -158.465498 61.816053 159.343805 0.000000 0.000000 0.000000 
8.661494 48.468418 131.507339 0.000000 0.000000 0.000000 -3.002963 -43.291696 27.554211 -70.347957 -10.764154 -4.234192 31.618510 7.507266 14.781923 39.764272 1.958753 -1.705186 -5.793661 -3.524319 3.669454 0.000000 0.000000 0.000000 -3.840572 -45.952509 27.556991 10.402098 -2.691764 -0.255757 72.906867 17.093607 2.604628 11.061496 7.737513 -4.340919 -1.369768 7.637633 9.842086 0.000000 0.000000 0.000000 -8.011516 -33.198787 28.747235 10.327823 5.206675 -10.950627 14.299961 0.598379 -8.241521 -0.699062 -0.354393 1.543765 0.000000 0.000000 0.000000 10.252202 1.117756 -8.394572 13.847034 0.432153 -16.911045 -5.200378 4.632190 -11.502518 0.000000 0.000000 0.000000 13.111868 1.698353 -8.536370 0.491826 0.190395 -5.591408 -1.336067 -8.949192 -6.360600 37.869793 25.639980 -62.448201 32.737076 -35.347954 4.701000 0.000000 0.000000 0.000000 14.685672 2.089386 -9.751927 2.094815 7.638172 1.199992 4.228577 -2.987621 6.335590 20.964036 -21.523418 42.163116 -160.981616 67.827412 164.710381 0.000000 0.000000 0.000000 
